<svg class="w-6 h-6" fill="currentColor" viewBox="0 0 24 24" aria-hidden="true"><path fill-rule="evenodd" d="M12 2C6.477 2 2 6.477 2 12.011c0 4.632 3.061 8.544 7.213 9.795.526.097.718-.227.718-.504 0-.248-.009-.897-.014-1.762-2.972.646-3.6-1.432-3.6-1.432-.478-1.214-1.168-1.538-1.168-1.538-.954-.652.072-.639.072-.639 1.055.075 1.61 1.084 1.61 1.084.938 1.606 2.462 1.142 3.062.872.095-.678.367-1.142.668-1.405-2.336-.266-4.79-1.168-4.79-5.193 0-1.147.41-2.086 1.084-2.822-.109-.266-.47-1.335.103-2.782 0 0 .884-.283 2.895 1.08a10.045 10.045 0 015.276 0c2.01-1.363 2.894-1.08 2.894-1.08.573 1.447.212 2.516.105 2.782.675.736 1.084 1.675 1.084 2.822 0 4.035-2.458 4.925-4.802 5.183.378.324.712.97.712 1.954 0 1.406-.013 2.54-.013 2.885 0 .279.19.606.723.502C18.943 20.555 22 16.64 22 12.01C22 6.477 17.523 2 12 2z" clip-rule="evenodd" /></svg>